<?xml version="1.0" standalone="no"?>
<!DOCTYPE svg PUBLIC "-//W3C//DTD SVG 20010904//EN"
 "http://www.w3.org/TR/2001/REC-SVG-20010904/DTD/svg10.dtd">
<svg version="1.0" xmlns="http://www.w3.org/2000/svg"
 width="700.000000pt" height="700.000000pt" viewBox="0 0 700.000000 700.000000"
 preserveAspectRatio="xMidYMid meet">
<metadata>
Created by potrace 1.11, written by Peter Selinger 2001-2013
</metadata>
<g transform="translate(0.000000,700.000000) scale(0.100000,-0.100000)"
fill="#000000" stroke="none">
<path d="M2157 6564 c-1 -1 -51 -4 -111 -8 -123 -7 -158 -11 -266 -32 -126
-25 -290 -70 -345 -94 -11 -5 -45 -19 -75 -30 -48 -19 -200 -93 -270 -131
-202 -112 -453 -330 -621 -539 -93 -115 -230 -345 -287 -480 -21 -49 -86 -224
-91 -242 -1 -4 -3 -13 -6 -20 -11 -36 -40 -165 -58 -263 -20 -108 -21 -142
-23 -1910 -4 -2009 -9 -1855 68 -2014 87 -182 286 -327 491 -357 17 -3 456 -6
973 -6 867 -1 948 1 1015 17 188 45 345 166 436 335 38 72 56 129 69 220 9 59
9 1873 0 1925 -43 258 -211 454 -460 538 -58 20 -87 21 -673 24 l-612 4 3 497
c2 273 7 513 11 532 70 339 307 597 635 690 55 16 114 23 220 26 177 6 230 17
297 61 61 40 99 87 126 157 19 48 20 75 22 416 0 201 -3 388 -8 415 -19 108
-100 206 -202 244 -39 15 -84 21 -156 23 -55 2 -101 2 -102 2z"/>
<path d="M6127 6563 c-2 -1 -41 -3 -87 -4 -118 -3 -305 -27 -415 -54 -33 -9
-69 -17 -79 -20 -42 -10 -155 -49 -241 -83 -414 -163 -782 -472 -1038 -871
-122 -189 -246 -505 -286 -726 -6 -33 -13 -69 -15 -80 -5 -29 -14 -99 -22
-180 -9 -91 -9 -3474 0 -3540 38 -285 269 -518 556 -560 51 -8 1887 -9 1937
-1 270 40 511 272 552 531 9 58 7 1964 -2 2003 -30 127 -90 235 -182 327 -38
38 -95 85 -127 103 -65 39 -177 79 -240 86 -24 3 -301 5 -615 5 l-573 1 0 468
c0 257 5 497 10 533 41 285 231 540 493 665 110 52 203 74 342 79 195 9 222
12 278 38 56 26 107 72 142 127 19 31 25 47 42 110 2 8 4 182 5 385 0 261 -3
383 -12 415 -32 120 -142 219 -261 236 -38 6 -159 11 -162 7z"/>
</g>
</svg>
